<svg xmlns="http://www.w3.org/2000/svg" viewBox="0 0 32 32" fill="none">
  <rect width="32" height="32" rx="8" fill="url(#grad)"/>
  <path d="M16 7C16 7 9 12.5 9 18C9 21.866 12.134 25 16 25C19.866 25 23 21.866 23 18C23 12.5 16 7 16 7Z" fill="white" fill-opacity="0.9"/>
  <path d="M16 11C16 11 11 15.2 11 18.5C11 21.0 13.24 23 16 23C18.76 23 21 21.0 21 18.5C21 15.2 16 11 16 11Z" fill="url(#grad2)"/>
  <defs>
    <linearGradient id="grad" x1="0" y1="0" x2="32" y2="32" gradientUnits="userSpaceOnUse">
      <stop offset="0%" stop-color="#f97316"/>
      <stop offset="100%" stop-color="#10b981"/>
    </linearGradient>
    <linearGradient id="grad2" x1="11" y1="11" x2="21" y2="23" gradientUnits="userSpaceOnUse">
      <stop offset="0%" stop-color="#f97316"/>
      <stop offset="100%" stop-color="#10b981"/>
    </linearGradient>
  </defs>
</svg>
